<?xml version="1.0" encoding="UTF-8"?>
<svg width="94px" height="20px" viewBox="0 0 94 20" version="1.1" xmlns="http://www.w3.org/2000/svg" xmlns:xlink="http://www.w3.org/1999/xlink">
    <title>8E44B3B7-3729-4E63-AFCC-5C611468CCAD</title>
    <defs>
        <radialGradient cx="3.46205762%" cy="0%" fx="3.46205762%" fy="0%" r="446.651423%" gradientTransform="translate(0.034621,0.000000),scale(0.212766,1.000000),rotate(9.845700),translate(-0.034621,-0.000000)" id="radialGradient-1">
            <stop stop-color="#005AF6" offset="0%"></stop>
            <stop stop-color="#0141B0" offset="100%"></stop>
        </radialGradient>
    </defs>
    <g id="App-Features" stroke="none" stroke-width="1" fill="none" fill-rule="evenodd">
        <g id="Header-/-App-Features" transform="translate(-20.000000, -22.000000)" fill="url(#radialGradient-1)">
            <path d="M24.7204695,37.9241245 C23.9060297,37.9241245 23.0850867,37.8690018 22.2576158,37.7587549 C21.430145,37.6485079 20.6776139,37.4798974 20,37.2529183 L20,22 L24.1633954,22 L24.1633954,28.0214008 L24.3490868,28.0214008 C24.6553162,27.6322938 25.0315817,27.3388466 25.4778947,27.1410506 C25.9242077,26.9432545 26.4340394,26.844358 27.007405,26.844358 C27.7827517,26.844358 28.4896748,27.0405298 29.1281956,27.4328794 C29.7667165,27.8252289 30.2749193,28.4202295 30.6528193,29.2178988 C31.0307194,30.0155682 31.2196666,30.9915636 31.2196666,32.1459144 C31.2196666,34.0265982 30.6821444,35.4597875 29.6070839,36.4455253 C28.5320233,37.431263 26.9031682,37.9241245 24.7204695,37.9241245 Z M25.0527593,34.8404669 C25.7368887,34.8404669 26.2402049,34.6588864 26.5627231,34.2957198 C26.8852413,33.9325533 27.0464979,33.3229615 27.0464979,32.4669261 C27.0464979,31.6238609 26.9047875,31.0353454 26.6213625,30.7013619 C26.3379374,30.3673784 25.9062908,30.2003891 25.3264097,30.2003891 C24.8963855,30.2003891 24.5087179,30.2782093 24.1633954,30.4338521 L24.1633954,34.7431907 C24.4435627,34.8080418 24.7400144,34.8404669 25.0527593,34.8404669 Z M42.3850375,33.5272374 L36.1106246,33.5272374 C36.1497177,33.8709485 36.2604799,34.1368343 36.4429144,34.3249027 C36.6253489,34.5129711 36.916914,34.6491565 37.3176184,34.733463 C37.7183228,34.8177696 38.2835355,34.8599222 39.0132736,34.8599222 C39.8146823,34.8599222 40.7268412,34.7658894 41.7497776,34.577821 L41.7497776,37.6128405 C40.6291085,37.8268493 39.5117138,37.9338521 38.3975602,37.9338521 C36.8859599,37.9338521 35.6578031,37.7376803 34.7130529,37.3453307 C33.7683028,36.9529812 33.0727816,36.3498744 32.6264686,35.5359922 C32.1801556,34.7221101 31.9570024,33.6634306 31.9570024,32.3599222 C31.9570024,31.2185416 32.163867,30.2360612 32.5776024,29.4124514 C32.9913379,28.5888415 33.6037874,27.9549309 34.4149694,27.5107004 C35.2261515,27.0664699 36.2116089,26.844358 37.3713711,26.844358 C39.0132818,26.844358 40.259356,27.3372195 41.1096311,28.3229572 C41.9599063,29.3086949 42.3850375,30.6997316 42.3850375,32.4961089 L42.3850375,33.5272374 Z M37.322505,29.3735409 C37.0358222,29.3735409 36.8061536,29.431906 36.6334924,29.5486381 C36.4608311,29.6653702 36.3288939,29.8599208 36.2376766,30.1322957 C36.1464593,30.4046706 36.0975937,30.7775592 36.0910782,31.2509728 L38.5441586,31.2509728 C38.5376431,30.7775592 38.4904063,30.4046706 38.4024468,30.1322957 C38.3144873,29.8599208 38.1841789,29.6653702 38.0115176,29.5486381 C37.8388564,29.431906 37.6091878,29.3735409 37.322505,29.3735409 Z M55.9448494,26.844358 C57.1111272,26.844358 58.0330592,27.2075191 58.7106732,27.9338521 C59.3882871,28.6601852 59.7270889,29.7950636 59.7270889,31.3385214 L59.7270889,37.7198444 L55.5734667,37.7198444 L55.5734667,31.5719844 C55.5734667,31.1439667 55.4887663,30.8391708 55.3193628,30.6575875 C55.1499593,30.4760043 54.9088887,30.385214 54.5961438,30.385214 C54.1856662,30.385214 53.8338335,30.4987018 53.5406351,30.7256809 C53.5471507,30.8229577 53.5504084,30.9785982 53.5504084,31.192607 L53.5504084,37.7198444 L49.474972,37.7198444 L49.474972,31.5719844 C49.474972,31.1374816 49.3984158,30.8310644 49.2453011,30.6527237 C49.0921864,30.474383 48.8625178,30.385214 48.5562885,30.385214 C48.3152143,30.385214 48.0904323,30.4306091 47.8819357,30.5214008 C47.6734391,30.6121924 47.5040382,30.7321653 47.3737278,30.881323 L47.3737278,37.7198444 L43.2103324,37.7198444 L43.2103324,27.0194553 L46.6309624,27.0194553 L46.9046128,28.0311284 L47.0805309,28.0311284 C47.8167845,27.2399442 48.800613,26.844358 50.032046,26.844358 C50.6184427,26.844358 51.1461918,26.9513608 51.6153091,27.1653696 C52.0844264,27.3793785 52.4720939,27.706872 52.7783233,28.1478599 C53.2083475,27.7133571 53.6953752,27.3874849 54.239421,27.1702335 C54.7834668,26.9529821 55.3519372,26.844358 55.9448494,26.844358 Z M68.2243684,27.0194553 L72.2998048,27.0194553 L67.266592,42 L63.210702,42 L64.6669131,37.7198444 L63.5332186,37.7198444 L59.9562169,27.0194553 L64.2857572,27.0194553 L66.2599494,33.8677043 L68.2243684,27.0194553 Z M72.5875721,27.0194553 L76.0766147,27.0194553 L76.3209454,28.1381323 L76.4968636,28.1381323 C76.8030929,27.7295699 77.1907605,27.411804 77.6598778,27.1848249 C78.1289951,26.9578458 78.669775,26.844358 79.2822337,26.844358 C80.1227356,26.844358 80.883411,27.0356661 81.5642827,27.4182879 C82.2451543,27.8009098 82.789192,28.3894253 83.1964119,29.1838521 C83.6036318,29.9782789 83.8072387,30.9721082 83.8072387,32.1653696 C83.8072387,33.3845716 83.5743124,34.423796 83.1084528,35.2830739 C82.6425932,36.1423519 81.9519586,36.7973389 81.0365283,37.2480545 C80.121098,37.6987701 78.9955591,37.9241245 77.6598778,37.9241245 C77.4188036,37.9241245 77.1158365,37.9111545 76.7509675,37.885214 L76.7509675,42 L72.5875721,42 L72.5875721,27.0194553 Z M77.6403313,34.8307393 C78.3244608,34.8307393 78.827777,34.65078 79.1502952,34.290856 C79.4728133,33.9309321 79.63407,33.326204 79.63407,32.4766537 C79.63407,31.6335885 79.4939884,31.0418305 79.2138211,30.7013619 C78.9336539,30.3608932 78.5231824,30.1906615 77.9823943,30.1906615 C77.7608667,30.1906615 77.5409713,30.2182228 77.3227014,30.2733463 C77.1044315,30.3284698 76.9138555,30.4079113 76.7509675,30.5116732 L76.7509675,34.7529183 C77.0897745,34.8047992 77.3862261,34.8307393 77.6403313,34.8307393 Z M88.9034345,26.844358 C90.2260847,26.844358 91.2848406,27.0016197 92.0797338,27.3161479 C92.8746271,27.630676 93.4593861,28.1462351 93.8340284,28.8628405 C94.2086707,29.5794459 94.395989,30.55382 94.395989,31.7859922 L94.395989,37.7198444 L90.9851322,37.7198444 L90.7017086,36.7373541 L90.5257905,36.7373541 C89.9654559,37.5350234 89.0728432,37.9338521 87.8479258,37.9338521 C87.0921257,37.9338521 86.4405836,37.7976667 85.89328,37.5252918 C85.3459765,37.2529169 84.9289896,36.8735433 84.6423068,36.3871595 C84.3556239,35.9007758 84.2122847,35.3430641 84.2122847,34.7140078 C84.2122847,33.6374784 84.5999522,32.8057747 85.3752989,32.2188716 C86.1506456,31.6319685 87.3755447,31.2931263 89.0500329,31.2023346 L90.3205527,31.1342412 C90.2814596,30.842411 90.1853571,30.6089503 90.0322424,30.4338521 C89.8791277,30.258754 89.6494592,30.1322961 89.3432298,30.0544747 C89.0370004,29.9766533 88.6265289,29.9377432 88.111803,29.9377432 C87.6752632,29.9377432 87.1931221,29.9717895 86.6653651,30.0398833 C86.1376081,30.107977 85.6456939,30.2068735 85.1896076,30.3365759 L85.1896076,27.2821012 C85.7499422,27.1394286 86.3607628,27.0308045 87.022088,26.9562257 C87.6834131,26.8816468 88.3105223,26.844358 88.9034345,26.844358 Z M89.2845904,35.1225681 C89.7146146,35.1225681 90.0664473,35.0415054 90.3400991,34.8793774 L90.3400991,33.3326848 L89.5093747,33.3715953 C88.6949349,33.4169911 88.2877211,33.7315146 88.2877211,34.3151751 C88.2877211,34.5745798 88.3740504,34.7739941 88.5467116,34.9134241 C88.7193729,35.0528541 88.96533,35.1225681 89.2845904,35.1225681 Z M99.2478542,37.9338521 C97.8405022,37.9338521 96.5927991,37.7684841 95.5047076,37.4377432 L95.5047076,34.4708171 C96.0324645,34.6264599 96.6155947,34.7496753 97.2541155,34.8404669 C97.8926363,34.9312586 98.5311475,34.9766537 99.1696683,34.9766537 C99.7104564,34.9766537 100.088351,34.9296373 100.303363,34.8356031 C100.518375,34.7415689 100.625879,34.6037623 100.625879,34.422179 C100.625879,34.3054469 100.588416,34.2162779 100.513487,34.1546693 C100.438559,34.0930607 100.303364,34.0460443 100.107898,34.0136187 L98.172799,33.6828794 C97.1498626,33.5142663 96.3940738,33.1673178 95.9054099,32.6420233 C95.4167461,32.1167289 95.1724178,31.3968917 95.1724178,30.4824903 C95.1724178,29.7302167 95.3776535,29.083336 95.7881312,28.5418288 C96.1986088,28.0003215 96.8208315,27.5820378 97.6548179,27.286965 C98.4888042,26.9918922 99.5247561,26.844358 100.762705,26.844358 C101.316524,26.844358 101.867077,26.8767831 102.41438,26.9416342 C102.961684,27.0064854 103.443825,27.0940332 103.860818,27.2042802 L103.860818,30.1712062 C103.45034,30.0544741 102.982859,29.9636839 102.45836,29.8988327 C101.933861,29.8339815 101.410998,29.8015564 100.889757,29.8015564 C100.166534,29.8015564 99.6729909,29.8566791 99.4091124,29.9669261 C99.1452339,30.0771731 99.0132967,30.2198435 99.0132967,30.3949416 C99.0132967,30.4987035 99.0523892,30.578145 99.1305754,30.6332685 C99.2087616,30.688392 99.3455855,30.7321659 99.541051,30.7645914 L101.485924,31.0953307 C102.476282,31.2639438 103.220669,31.5930585 103.719106,32.0826848 C104.217543,32.5723111 104.466758,33.3067396 104.466758,34.2859922 C104.466758,35.0382658 104.259894,35.688389 103.846158,36.2363813 C103.432423,36.7843737 102.833004,37.2042787 102.047884,37.4961089 C101.262764,37.7879392 100.32943,37.9338521 99.2478542,37.9338521 Z M108.781096,37.9338521 C107.373744,37.9338521 106.126041,37.7684841 105.037949,37.4377432 L105.037949,34.4708171 C105.565706,34.6264599 106.148836,34.7496753 106.787357,34.8404669 C107.425878,34.9312586 108.064389,34.9766537 108.70291,34.9766537 C109.243698,34.9766537 109.621592,34.9296373 109.836605,34.8356031 C110.051617,34.7415689 110.159121,34.6037623 110.159121,34.422179 C110.159121,34.3054469 110.121657,34.2162779 110.046729,34.1546693 C109.971801,34.0930607 109.836606,34.0460443 109.64114,34.0136187 L107.706041,33.6828794 C106.683104,33.5142663 105.927315,33.1673178 105.438652,32.6420233 C104.949988,32.1167289 104.705659,31.3968917 104.705659,30.4824903 C104.705659,29.7302167 104.910895,29.083336 105.321373,28.5418288 C105.731851,28.0003215 106.354073,27.5820378 107.18806,27.286965 C108.022046,26.9918922 109.057998,26.844358 110.295946,26.844358 C110.849765,26.844358 111.400318,26.8767831 111.947622,26.9416342 C112.494926,27.0064854 112.977067,27.0940332 113.39406,27.2042802 L113.39406,30.1712062 C112.983582,30.0544741 112.516101,29.9636839 111.991601,29.8988327 C111.467102,29.8339815 110.94424,29.8015564 110.422998,29.8015564 C109.699776,29.8015564 109.206233,29.8566791 108.942354,29.9669261 C108.678476,30.0771731 108.546538,30.2198435 108.546538,30.3949416 C108.546538,30.4987035 108.585631,30.578145 108.663817,30.6332685 C108.742003,30.688392 108.878827,30.7321659 109.074293,30.7645914 L111.019165,31.0953307 C112.009524,31.2639438 112.753911,31.5930585 113.252348,32.0826848 C113.750785,32.5723111 114,33.3067396 114,34.2859922 C114,35.0382658 113.793135,35.688389 113.3794,36.2363813 C112.965665,36.7843737 112.366246,37.2042787 111.581126,37.4961089 C110.796006,37.7879392 109.862672,37.9338521 108.781096,37.9338521 Z" id="bemypass-copy-14"></path>
        </g>
    </g>
</svg>